<svg id="Layer_1" data-name="Layer 1" xmlns="http://www.w3.org/2000/svg" viewBox="0 0 303.12 134.01"><defs><style>.cls-1{fill:#7e909d;}.cls-2{fill:#ec184b;}.cls-3{fill:none;stroke:#ec184b;stroke-linecap:round;stroke-linejoin:round;stroke-width:4.64px;}</style></defs><path class="cls-1" d="M93,97.13h4.34v1.32H94.42v1.31h2.69v1.32H94.42v2.52H93Z"/><path class="cls-1" d="M98.77,97.13h4.4v1.32h-3v1.2H103V101h-2.8v1.31h3.13v1.32H98.77ZM101,95.34h1.86l-1.58,1.32H100Z"/><path class="cls-1" d="M104.84,97.13H107a5.94,5.94,0,0,1,1.48.18,3.33,3.33,0,0,1,1.22.56,2.73,2.73,0,0,1,.82,1,3.26,3.26,0,0,1,.31,1.5,3.06,3.06,0,0,1-.3,1.39,2.9,2.9,0,0,1-.8,1,3.49,3.49,0,0,1-1.16.62,4.41,4.41,0,0,1-1.37.21h-2.33Zm1.42,5.15H107a3.87,3.87,0,0,0,.92-.1,1.75,1.75,0,0,0,.73-.33,1.56,1.56,0,0,0,.49-.61,2.14,2.14,0,0,0,.18-.93,1.77,1.77,0,0,0-.18-.82,1.61,1.61,0,0,0-.48-.58,2,2,0,0,0-.7-.35,3.49,3.49,0,0,0-.86-.11h-.84Z"/><path class="cls-1" d="M112.19,97.13h4.39v1.32h-3v1.2h2.81V101h-2.81v1.31h3.13v1.32h-4.55Zm2.17-1.79h1.86l-1.58,1.32h-1.2Z"/><path class="cls-1" d="M118.25,97.13h2.5a4.75,4.75,0,0,1,.94.1,2.13,2.13,0,0,1,.77.32,1.54,1.54,0,0,1,.53.6,1.94,1.94,0,0,1,.2.95,1.88,1.88,0,0,1-.36,1.16,1.59,1.59,0,0,1-1,.61l1.65,2.73h-1.71L120.38,101h-.71v2.59h-1.42Zm1.42,2.68h1.25a1.24,1.24,0,0,0,.39-.09.66.66,0,0,0,.29-.21.71.71,0,0,0,.11-.41.63.63,0,0,0-.1-.39.68.68,0,0,0-.25-.23,1.07,1.07,0,0,0-.36-.1,2.66,2.66,0,0,0-.39,0h-.94Z"/><path class="cls-1" d="M126.66,97.13h1.18l2.81,6.47H129l-.55-1.37H126l-.54,1.37h-1.57Zm.55,1.89-.79,2H128Z"/><path class="cls-1" d="M132.08,98.39h-1.85V97.13h5.11v1.26H133.5v5.21h-1.42Z"/><path class="cls-1" d="M136.41,97.13h1.43v6.47h-1.43Z"/><path class="cls-1" d="M139.15,100.37a3.73,3.73,0,0,1,.26-1.41,3.13,3.13,0,0,1,.73-1.07,3.18,3.18,0,0,1,1.1-.68,4.2,4.2,0,0,1,2.8,0,3.18,3.18,0,0,1,1.1.68,3,3,0,0,1,.73,1.07,3.93,3.93,0,0,1,0,2.81,3.13,3.13,0,0,1-.73,1.08,3.34,3.34,0,0,1-1.1.68,4.38,4.38,0,0,1-2.8,0,3.34,3.34,0,0,1-1.1-.68,3.27,3.27,0,0,1-.73-1.08A3.71,3.71,0,0,1,139.15,100.37Zm1.48,0a2.45,2.45,0,0,0,.14.83,2,2,0,0,0,.41.66,1.81,1.81,0,0,0,.63.43,2,2,0,0,0,.83.16,2,2,0,0,0,.83-.16,1.81,1.81,0,0,0,.63-.43,2,2,0,0,0,.41-.66,2.53,2.53,0,0,0,0-1.66,2,2,0,0,0-.41-.67,2,2,0,0,0-.63-.43,2.19,2.19,0,0,0-.83-.16,2.23,2.23,0,0,0-.83.16,2,2,0,0,0-.63.43,2,2,0,0,0-.41.67A2.45,2.45,0,0,0,140.63,100.37Z"/><path class="cls-1" d="M147.46,97.13h1.94l2.75,4.5h0v-4.5h1.42v6.47h-1.86L148.91,99h0v4.6h-1.43Z"/><path class="cls-1" d="M158.34,97.13h2.15l1.49,4.22h0l1.5-4.22h2.14v6.47h-1.42v-5h0l-1.7,5h-1.08l-1.64-5h0v5h-1.42Z"/><path class="cls-1" d="M167,100.37a3.54,3.54,0,0,1,.26-1.41,3,3,0,0,1,.72-1.07,3.14,3.14,0,0,1,1.11-.68,4.17,4.17,0,0,1,2.79,0,3.14,3.14,0,0,1,1.11.68,3,3,0,0,1,.72,1.07,3.93,3.93,0,0,1,0,2.81,3.1,3.1,0,0,1-.72,1.08,3.29,3.29,0,0,1-1.11.68,4.35,4.35,0,0,1-2.79,0,3.29,3.29,0,0,1-1.11-.68,3.1,3.1,0,0,1-.72-1.08A3.53,3.53,0,0,1,167,100.37Zm1.48,0a2.23,2.23,0,0,0,.14.83,2,2,0,0,0,.4.66,1.76,1.76,0,0,0,.64.43,2.21,2.21,0,0,0,1.65,0,1.76,1.76,0,0,0,.64-.43,2,2,0,0,0,.4-.66,2.53,2.53,0,0,0,0-1.66,2,2,0,0,0-.4-.67,1.9,1.9,0,0,0-.64-.43,2.21,2.21,0,0,0-1.65,0,1.9,1.9,0,0,0-.64.43,2,2,0,0,0-.4.67A2.23,2.23,0,0,0,168.46,100.37Z"/><path class="cls-1" d="M175.29,97.13h1.93l2.75,4.5h0v-4.5h1.42v6.47h-1.86L176.73,99h0v4.6h-1.42Z"/><path class="cls-1" d="M183.09,97.13h2.14a5.94,5.94,0,0,1,1.48.18,3.21,3.21,0,0,1,1.21.56,2.66,2.66,0,0,1,.83,1,3.4,3.4,0,0,1,.31,1.5,3.06,3.06,0,0,1-.3,1.39,2.9,2.9,0,0,1-.8,1,3.49,3.49,0,0,1-1.16.62,4.52,4.52,0,0,1-1.38.21h-2.33Zm1.43,5.15h.74a3.73,3.73,0,0,0,.91-.1,1.79,1.79,0,0,0,.74-.33,1.56,1.56,0,0,0,.49-.61,2.14,2.14,0,0,0,.18-.93,1.77,1.77,0,0,0-.18-.82,1.61,1.61,0,0,0-.48-.58,2.05,2.05,0,0,0-.71-.35,3.35,3.35,0,0,0-.85-.11h-.84Z"/><path class="cls-1" d="M190.37,97.13h1.43v6.47h-1.43Z"/><path class="cls-1" d="M195.59,97.13h1.17l2.82,6.47H198l-.56-1.37H194.9l-.54,1.37h-1.57Zm.54,1.89-.78,2h1.58Z"/><path class="cls-1" d="M200.64,97.13h1.43v5.15h2.64v1.32h-4.07Z"/><path class="cls-1" d="M205.91,97.13h4.39v1.32h-3v1.2h2.8V101h-2.8v1.31h3.13v1.32h-4.56Z"/><path class="cls-1" d="M215,97.13h2.14a5.94,5.94,0,0,1,1.48.18,3.33,3.33,0,0,1,1.22.56,2.73,2.73,0,0,1,.82,1,3.26,3.26,0,0,1,.31,1.5,3.06,3.06,0,0,1-.3,1.39,2.9,2.9,0,0,1-.8,1,3.49,3.49,0,0,1-1.16.62,4.52,4.52,0,0,1-1.38.21H215Zm1.43,5.15h.74a3.87,3.87,0,0,0,.92-.1,1.81,1.81,0,0,0,.73-.33,1.56,1.56,0,0,0,.49-.61,2.14,2.14,0,0,0,.18-.93,1.77,1.77,0,0,0-.18-.82,1.61,1.61,0,0,0-.48-.58,2.05,2.05,0,0,0-.71-.35,3.35,3.35,0,0,0-.85-.11h-.84Z"/><path class="cls-1" d="M222.39,97.13h4.4v1.32h-3v1.2h2.8V101h-2.8v1.31H227v1.32h-4.56Z"/><path class="cls-1" d="M231.58,97.13H233v5.15h2.63v1.32h-4.06Z"/><path class="cls-1" d="M235.65,99.71h-1.16l.67-2.58h1.32Z"/><path class="cls-1" d="M237.85,97.13h1.43v2.41h2.77V97.13h1.42v6.47h-1.42v-2.8h-2.77v2.8h-1.43Z"/><path class="cls-1" d="M245.21,97.13h4.39v1.32h-3v1.2h2.8V101h-2.8v1.31h3.13v1.32h-4.55Zm2.17-1.79h1.86l-1.58,1.32h-1.2Z"/><path class="cls-1" d="M251.27,97.13h2.15l1.49,4.22h0l1.5-4.22h2.14v6.47h-1.42v-5h0l-1.7,5h-1.08l-1.64-5h0v5h-1.42Z"/><path class="cls-1" d="M259.91,100.37a3.54,3.54,0,0,1,.26-1.41,3,3,0,0,1,.72-1.07,3.14,3.14,0,0,1,1.11-.68,4.17,4.17,0,0,1,2.79,0,3.14,3.14,0,0,1,1.11.68,3,3,0,0,1,.72,1.07,3.93,3.93,0,0,1,0,2.81,3.1,3.1,0,0,1-.72,1.08,3.29,3.29,0,0,1-1.11.68,4.35,4.35,0,0,1-2.79,0,3.29,3.29,0,0,1-1.11-.68,3.1,3.1,0,0,1-.72-1.08A3.53,3.53,0,0,1,259.91,100.37Zm1.48,0a2.23,2.23,0,0,0,.14.83,2,2,0,0,0,.4.66,1.76,1.76,0,0,0,.64.43,2,2,0,0,0,.83.16,2,2,0,0,0,.82-.16,1.76,1.76,0,0,0,.64-.43,2,2,0,0,0,.4-.66,2.53,2.53,0,0,0,0-1.66,2,2,0,0,0-.4-.67,1.9,1.9,0,0,0-.64-.43,2.14,2.14,0,0,0-.82-.16,2.19,2.19,0,0,0-.83.16,1.9,1.9,0,0,0-.64.43,2,2,0,0,0-.4.67A2.23,2.23,0,0,0,261.39,100.37Z"/><path class="cls-1" d="M268.22,97.13h2.4a4.19,4.19,0,0,1,.95.1,2.09,2.09,0,0,1,.78.31,1.62,1.62,0,0,1,.53.6,2.1,2.1,0,0,1,.2,1,2.26,2.26,0,0,1-.19,1,1.58,1.58,0,0,1-.5.61,2,2,0,0,1-.76.32,4.07,4.07,0,0,1-.95.1h-1v2.52h-1.42Zm1.42,2.74h.95a2.22,2.22,0,0,0,.37,0,1,1,0,0,0,.32-.13.57.57,0,0,0,.23-.23.74.74,0,0,0,.09-.38.62.62,0,0,0-.12-.4.66.66,0,0,0-.29-.23,1.24,1.24,0,0,0-.4-.11l-.42,0h-.73Z"/><path class="cls-1" d="M274.34,97.13h1.42v2.41h2.77V97.13H280v6.47h-1.42v-2.8h-2.77v2.8h-1.42Z"/><path class="cls-1" d="M281.61,97.13H283v6.47h-1.43Z"/><path class="cls-1" d="M284.75,97.13h1.43v5.15h2.64v1.32h-4.07Z"/><path class="cls-1" d="M290,97.13h1.42v6.47H290Z"/><path class="cls-1" d="M293.09,97.13h4.39v1.32h-3v1.2h2.8V101h-2.8v1.31h3.13v1.32h-4.56Z"/><path class="cls-2" d="M94.36,26.24h36.55a1.37,1.37,0,0,1,1.37,1.36v9.18a1.38,1.38,0,0,1-1.37,1.37h-25v11.9h23a1.37,1.37,0,0,1,1.37,1.37V60.6A1.36,1.36,0,0,1,128.92,62h-23V83.42a1.36,1.36,0,0,1-1.36,1.37H94.36A1.37,1.37,0,0,1,93,83.42V27.6A1.37,1.37,0,0,1,94.36,26.24Z"/><path class="cls-2" d="M220.3,26.24h10.17a1.37,1.37,0,0,1,1.37,1.36V48.07h25V27.6a1.37,1.37,0,0,1,1.37-1.36h10.17a1.36,1.36,0,0,1,1.36,1.36V83.42a1.36,1.36,0,0,1-1.36,1.37H258.26a1.37,1.37,0,0,1-1.37-1.37V59.48h-25V83.42a1.37,1.37,0,0,1-1.37,1.37H220.3a1.36,1.36,0,0,1-1.36-1.37V27.6A1.36,1.36,0,0,1,220.3,26.24Z"/><path class="cls-2" d="M143.89,26.24h17.19a1.35,1.35,0,0,1,1.28.91l13.16,37.29h.17l13.24-37.3a1.36,1.36,0,0,1,1.28-.9h17.11a1.36,1.36,0,0,1,1.36,1.36V83.43a1.36,1.36,0,0,1-1.36,1.36H197.15a1.36,1.36,0,0,1-1.37-1.36V39.88h-.16l-15.07,44a1.36,1.36,0,0,1-1.29.92h-7.88a1.35,1.35,0,0,1-1.29-.94l-14.5-44h-.16V83.43a1.36,1.36,0,0,1-1.37,1.36H143.89a1.36,1.36,0,0,1-1.36-1.36V27.6A1.36,1.36,0,0,1,143.89,26.24Z"/><circle class="cls-2" cx="47.6" cy="92.34" r="2.71"/><path class="cls-3" d="M40.84,64.49,57,26.42l16.53,39.7c1,2.31,2,4.55,3.07,6.82a21.71,21.71,0,0,1-4.82,24.65h0a21.71,21.71,0,0,1-29.32.56h0a21.24,21.24,0,1,1,7.05-15.81,14.85,14.85,0,0,1,0,2.7"/><ellipse class="cls-3" cx="27.99" cy="82.33" rx="8.32" ry="21.19"/><line class="cls-3" x1="7.04" y1="82.33" x2="49.53" y2="82.33"/></svg>